<svg width="800" height="600" viewBox="0 0 800 600" fill="none" xmlns="http://www.w3.org/2000/svg">
  <!-- Background -->
  <rect width="800" height="600" fill="#0A1929"/>
  
  <!-- Decorative Elements -->
  <circle cx="400" cy="300" r="200" fill="#6C63FF" opacity="0.1"/>
  <circle cx="400" cy="300" r="150" fill="#6C63FF" opacity="0.15"/>
  <circle cx="400" cy="300" r="100" fill="#6C63FF" opacity="0.2"/>
  
  <!-- Dashboard Interface -->
  <rect x="150" y="150" width="500" height="300" rx="10" fill="#6C63FF" opacity="0.8"/>
  
  <!-- Sidebar -->
  <rect x="150" y="150" width="100" height="300" rx="10" fill="#6C63FF"/>
  <circle cx="200" cy="180" r="15" fill="white"/>
  <rect x="175" y="220" width="50" height="10" rx="5" fill="white" opacity="0.9"/>
  <rect x="175" y="250" width="50" height="10" rx="5" fill="white" opacity="0.9"/>
  <rect x="175" y="280" width="50" height="10" rx="5" fill="white" opacity="0.9"/>
  <rect x="175" y="310" width="50" height="10" rx="5" fill="white" opacity="0.9"/>
  
  <!-- Main Content -->
  <rect x="270" y="170" width="360" height="80" rx="5" fill="white" opacity="0.9"/>
  
  <!-- Charts -->
  <rect x="270" y="270" width="170" height="160" rx="5" fill="white" opacity="0.9"/>
  <rect x="460" y="270" width="170" height="160" rx="5" fill="white" opacity="0.9"/>
  
  <!-- Chart Elements -->
  <path d="M290 390 L310 350 L330 370 L350 330 L370 350 L390 320 L410 390" stroke="#FF6584" stroke-width="3" fill="none"/>
  <rect x="480" y="320" width="20" height="70" rx="2" fill="#FF6584"/>
  <rect x="510" y="300" width="20" height="90" rx="2" fill="#FF6584"/>
  <rect x="540" y="340" width="20" height="50" rx="2" fill="#FF6584"/>
  <rect x="570" y="280" width="20" height="110" rx="2" fill="#FF6584"/>
  
  <!-- Project Title -->
  <rect x="250" y="500" width="300" height="40" rx="5" fill="#6C63FF" opacity="0.8"/>
  <text x="400" y="525" font-family="Arial" font-size="24" fill="white" text-anchor="middle">Analytics Dashboard</text>
</svg>