<svg width="600" height="600" viewBox="0 0 600 600" fill="none" xmlns="http://www.w3.org/2000/svg">
  <!-- Background -->
  <rect width="600" height="600" fill="#0A1929" opacity="0.05"/>
  
  <!-- Decorative Elements -->
  <circle cx="300" cy="300" r="250" fill="#6C63FF" opacity="0.1"/>
  <circle cx="300" cy="300" r="200" fill="#6C63FF" opacity="0.15"/>
  <circle cx="300" cy="300" r="150" fill="#6C63FF" opacity="0.2"/>
  
  <!-- Developer Illustration -->
  <!-- Desk -->
  <rect x="150" y="350" width="300" height="20" rx="5" fill="#6C63FF" opacity="0.8"/>
  <rect x="180" y="370" width="20" height="100" fill="#6C63FF" opacity="0.8"/>
  <rect x="400" y="370" width="20" height="100" fill="#6C63FF" opacity="0.8"/>
  
  <!-- Computer -->
  <rect x="200" y="250" width="200" height="120" rx="5" fill="#6C63FF" opacity="0.8"/>
  <rect x="210" y="260" width="180" height="100" rx="3" fill="white" opacity="0.9"/>
  <rect x="270" y="370" width="60" height="10" rx="2" fill="#6C63FF"/>
  <rect x="250" y="380" width="100" height="10" rx="5" fill="#6C63FF"/>
  
  <!-- Code on Screen -->
  <rect x="220" y="270" width="160" height="10" rx="2" fill="#FF6584" opacity="0.5"/>
  <rect x="220" y="290" width="140" height="10" rx="2" fill="#FF6584" opacity="0.5"/>
  <rect x="220" y="310" width="160" height="10" rx="2" fill="#FF6584" opacity="0.5"/>
  <rect x="220" y="330" width="120" height="10" rx="2" fill="#FF6584" opacity="0.5"/>
  
  <!-- Coffee Cup -->
  <rect x="420" y="320" width="30" height="40" rx="5" fill="#FF6584" opacity="0.8"/>
  <rect x="415" y="315" width="40" height="10" rx="5" fill="#FF6584" opacity="0.6"/>
  <path d="M450 330 C460 330, 460 350, 450 350" stroke="#FF6584" stroke-width="3" fill="none"/>
  
  <!-- Plant -->
  <rect x="120" y="300" width="30" height="50" rx="2" fill="#FF6584" opacity="0.6"/>
  <path d="M135 300 C120 280, 110 270, 100 280 M135 300 C150 280, 160 270, 170 280 M135 300 C135 280, 135 260, 135 240" stroke="#6C63FF" stroke-width="3" fill="none"/>
  <circle cx="100" cy="280" r="10" fill="#6C63FF" opacity="0.8"/>
  <circle cx="170" cy="280" r="10" fill="#6C63FF" opacity="0.8"/>
  <circle cx="135" cy="240" r="10" fill="#6C63FF" opacity="0.8"/>
</svg>