<svg width="200" height="200" viewBox="0 0 200 200" fill="none" xmlns="http://www.w3.org/2000/svg">
  <!-- Background Circle -->
  <circle cx="100" cy="100" r="100" fill="#FF6584" opacity="0.1"/>
  
  <!-- Head -->
  <circle cx="100" cy="80" r="40" fill="#FF6584" opacity="0.8"/>
  
  <!-- Body -->
  <path d="M100 130C77.9086 130 60 147.909 60 170V200H140V170C140 147.909 122.091 130 100 130Z" fill="#FF6584" opacity="0.8"/>
  
  <!-- Decorative Elements -->
  <circle cx="85" cy="70" r="5" fill="white"/>
  <circle cx="115" cy="70" r="5" fill="white"/>
  <path d="M85 95C85 95 95 105 100 105C105 105 115 95 115 95" stroke="white" stroke-width="2" stroke-linecap="round"/>
  
  <!-- Hair -->
  <path d="M60 80C60 80 70 30 100 30C130 30 140 80 140 80" fill="#FF6584"/>
  <path d="M60 80C60 80 70 30 100 30C130 30 140 80 140 80" stroke="#FF6584" stroke-width="2"/>
</svg>